SplineFontDB: 3.0
FontName: Jones-it-Book
FullName: Jones* Book
FamilyName: Jones*
Weight: Book
Copyright: 
UComments: "2016-1-29: Created with FontForge (http://fontforge.org)"
Version: 002.000
ItalicAngle: 0
UnderlinePosition: -150
UnderlineWidth: 50
Ascent: 784
Descent: 216
InvalidEm: 0
LayerCount: 2
Layer: 0 0 "Back" 1
Layer: 1 0 "Fore" 0
XUID: [1021 31 -699969567 4970488]
FSType: 0
OS2Version: 2
OS2_WeightWidthSlopeOnly: 0
OS2_UseTypoMetrics: 0
CreationTime: 1454127431
ModificationTime: 1454814719
PfmFamily: 17
TTFWeight: 400
TTFWidth: 5
LineGap: 0
VLineGap: 0
OS2TypoAscent: 784
OS2TypoAOffset: 0
OS2TypoDescent: -216
OS2TypoDOffset: 0
OS2TypoLinegap: 200
OS2WinAscent: 850
OS2WinAOffset: 0
OS2WinDescent: 300
OS2WinDOffset: 0
HheadAscent: 850
HheadAOffset: 0
HheadDescent: -300
HheadDOffset: 0
OS2SubXSize: 650
OS2SubYSize: 600
OS2SubXOff: 0
OS2SubYOff: 75
OS2SupXSize: 650
OS2SupYSize: 600
OS2SupXOff: 0
OS2SupYOff: 350
OS2StrikeYSize: 50
OS2StrikeYPos: 314
OS2CapHeight: 700
OS2XHeight: 520
OS2Vendor: 'PfEd'
Lookup: 5 0 0 "lig" { "lig-1"  } ['calt' ('DFLT' <'dflt' > 'grek' <'dflt' > 'latn' <'dflt' > ) ]
Lookup: 1 0 0 "fi" { "fi-1"  } ['ss01' ('DFLT' <'dflt' > 'grek' <'dflt' > 'latn' <'dflt' > ) ]
Lookup: 258 0 0 "kern" { "kerning" [150,0,2] } ['kern' ('DFLT' <'dflt' > 'grek' <'dflt' > 'latn' <'dflt' > ) ]
MarkAttachClasses: 1
DEI: 91125
KernClass2: 13 10 "kerning"
 3 A L
 5 D O Q
 3 F P
 3 K X
 3 V W
 13 b e h m n o p
 15 a c g q r s u z
 14 d f i j l t fi
 3 k x
 3 v w
 3 R B
 3 T Y
 1 A
 7 C G O Q
 3 T Y
 3 V W
 15 a m n p r s u z
 11 c d e g o q
 18 b f h i j k l t fi
 5 v w y
 1 x

StartChar: E
Encoding: 69 69 0
Width: 670
VWidth: 0
Flags: HMW
AnchorPoint: "ced" 495 0 basechar 0
AnchorPoint: "dot" 365 760 basechar 0
LayerCount: 2
Fore
SplineSet
100 398 m 1
 560 398 l 1
 560 318 l 1
 100 318 l 1
 100 398 l 1
100 700 m 1
 610 700 l 1
 610 620 l 1
 100 620 l 1
 100 700 l 1
100 80 m 1
 610 80 l 1
 610 0 l 1
 100 0 l 1
 100 80 l 1
100 700 m 1
 190 700 l 5
 190 0 l 5
 100 0 l 1
 100 700 l 1
EndSplineSet
EndChar

StartChar: I
Encoding: 73 73 1
Width: 300
VWidth: 0
Flags: HMW
AnchorPoint: "ced" 155 0 basechar 0
AnchorPoint: "dot" 150 760 basechar 0
LayerCount: 2
Fore
SplineSet
105 700 m 1
 195 700 l 1
 195 0 l 1
 105 0 l 1
 105 700 l 1
EndSplineSet
EndChar

StartChar: F
Encoding: 70 70 2
Width: 665
VWidth: 0
Flags: HMW
AnchorPoint: "ced" 145 0 basechar 0
AnchorPoint: "dot" 365 760 basechar 0
LayerCount: 2
Fore
SplineSet
100 378 m 1
 560 378 l 1
 560 298 l 1
 100 298 l 1
 100 378 l 1
100 700 m 1
 610 700 l 1
 610 620 l 1
 100 620 l 1
 100 700 l 1
100 700 m 1
 190 700 l 5
 190 0 l 5
 100 0 l 1
 100 700 l 1
EndSplineSet
EndChar

StartChar: H
Encoding: 72 72 3
Width: 765
VWidth: 0
Flags: HMW
AnchorPoint: "ced" 625 0 basechar 0
AnchorPoint: "dot" 380 760 basechar 0
LayerCount: 2
Fore
SplineSet
575 700 m 1
 665 700 l 1
 665 0 l 1
 575 0 l 1
 575 700 l 1
100 398 m 1
 610 398 l 1
 610 318 l 1
 100 318 l 1
 100 398 l 1
100 700 m 1
 190 700 l 1
 190 0 l 1
 100 0 l 1
 100 700 l 1
EndSplineSet
EndChar

StartChar: L
Encoding: 76 76 4
Width: 655
VWidth: 0
Flags: HMW
AnchorPoint: "ced" 365 0 basechar 0
AnchorPoint: "dot" 385 760 basechar 0
LayerCount: 2
Fore
SplineSet
100 80 m 1
 610 80 l 1
 610 0 l 1
 100 0 l 1
 100 80 l 1
100 700 m 1
 190 700 l 5
 190 0 l 5
 100 0 l 1
 100 700 l 1
EndSplineSet
EndChar

StartChar: T
Encoding: 84 84 5
Width: 690
VWidth: 0
Flags: HMW
AnchorPoint: "ced" 347 0 basechar 0
AnchorPoint: "dot" 345 760 basechar 0
LayerCount: 2
Fore
SplineSet
50 700 m 1
 640 700 l 1
 640 620 l 1
 50 620 l 1
 50 700 l 1
300 700 m 1
 390 700 l 1
 390 0 l 1
 300 0 l 1
 300 700 l 1
EndSplineSet
EndChar

StartChar: O
Encoding: 79 79 7
Width: 850
VWidth: 0
Flags: HMW
AnchorPoint: "ced" 425 0 basechar 0
AnchorPoint: "dot" 425 760 basechar 0
LayerCount: 2
Fore
SplineSet
160 350 m 0
 160 194 274 70 425 70 c 0
 576 70 690 194 690 350 c 4
 690 506 576 630 425 630 c 0
 274 630 160 506 160 350 c 0
70 350 m 0
 70 549 230 710 425 710 c 0
 620 710 780 549 780 350 c 4
 780 151 620 -10 425 -10 c 0
 230 -10 70 151 70 350 c 0
EndSplineSet
EndChar

StartChar: C
Encoding: 67 67 8
Width: 732
VWidth: 0
Flags: HMW
AnchorPoint: "ced" 425 0 basechar 0
AnchorPoint: "dot" 425 760 basechar 0
LayerCount: 2
Fore
SplineSet
160 350 m 0
 160 194 274 70 425 70 c 0
 508 70 581 110 634 171 c 5
 692 113 l 1
 627 38 531 -10 425 -10 c 0
 230 -10 70 151 70 350 c 0
 70 549 230 710 425 710 c 0
 531 710 627 662 692 587 c 1
 634 529 l 1
 581 590 508 630 425 630 c 0
 274 630 160 506 160 350 c 0
EndSplineSet
EndChar

StartChar: A
Encoding: 65 65 9
Width: 800
VWidth: 0
Flags: HMW
AnchorPoint: "ced" 707 0 basechar 0
AnchorPoint: "ring" 400 700 basechar 0
AnchorPoint: "dot" 400 760 basechar 0
LayerCount: 2
Fore
SplineSet
360 700 m 1
 440 700 l 1
 430 690 l 1
 360 690 l 1
 360 700 l 1
204 260 m 1
 596 260 l 1
 596 185 l 1
 204 185 l 1
 204 260 l 1
670 0 m 1
 360 690 l 1
 440 700 l 1
 760 0 l 1
 670 0 l 1
360 700 m 1
 440 690 l 1
 130 0 l 1
 40 0 l 1
 360 700 l 1
EndSplineSet
EndChar

StartChar: V
Encoding: 86 86 10
Width: 780
VWidth: 0
Flags: HMW
AnchorPoint: "ced" 390 0 basechar 0
AnchorPoint: "dot" 389 760 basechar 0
LayerCount: 2
Fore
SplineSet
430 0 m 1
 350 0 l 1
 350 30 l 1
 430 30 l 1
 430 0 l 1
135 700 m 1
 430 30 l 1
 350 0 l 1
 40 700 l 1
 135 700 l 1
430 0 m 1
 350 30 l 1
 645 700 l 1
 740 700 l 1
 430 0 l 1
EndSplineSet
EndChar

StartChar: G
Encoding: 71 71 11
Width: 782
VWidth: 0
Flags: HMW
AnchorPoint: "ced" 425 0 basechar 0
AnchorPoint: "dot" 425 760 basechar 0
LayerCount: 2
Fore
SplineSet
702 370 m 1
 702 290 l 1
 425 290 l 1
 425 370 l 1
 702 370 l 1
702 113 m 1
 612 113 l 1
 612 370 l 1
 702 370 l 1
 702 113 l 1
160 350 m 0
 160 194 274 70 425 70 c 0
 508 70 591 110 644 171 c 1
 702 113 l 1
 637 38 531 -10 425 -10 c 0
 230 -10 70 151 70 350 c 0
 70 549 230 710 425 710 c 0
 531 710 627 662 692 587 c 1
 634 529 l 1
 581 590 508 630 425 630 c 0
 274 630 160 506 160 350 c 0
EndSplineSet
EndChar

StartChar: D
Encoding: 68 68 12
Width: 810
VWidth: 0
Flags: HMW
AnchorPoint: "ced" 325 0 basechar 0
AnchorPoint: "dot" 345 760 basechar 0
LayerCount: 2
Fore
SplineSet
100 700 m 1
 380 700 l 1
 380 620 l 1
 100 620 l 1
 100 700 l 1
100 80 m 1
 380 80 l 1
 380 0 l 1
 100 0 l 1
 100 80 l 1
100 700 m 1
 190 700 l 1
 190 0 l 1
 100 0 l 1
 100 700 l 1
380 80 m 1
 531 80 650 194 650 350 c 0
 650 506 531 620 380 620 c 1
 380 700 l 1
 575 700 740 549 740 350 c 0
 740 151 575 0 380 0 c 1
 380 80 l 1
EndSplineSet
EndChar

StartChar: U
Encoding: 85 85 13
Width: 760
VWidth: 0
Flags: HMW
AnchorPoint: "ced" 380 0 basechar 0
AnchorPoint: "dot" 380 760 basechar 0
LayerCount: 2
Fore
SplineSet
585 280 m 5
 585 700 l 5
 670 700 l 1
 670 280 l 1
 585 280 l 5
90 280 m 1
 90 700 l 1
 175 700 l 1
 175 280 l 1
 90 280 l 1
585 280 m 5
 670 280 l 1
 670 111 539 -10 380 -10 c 0
 221 -10 90 111 90 280 c 1
 175 280 l 1
 175 161 263 65 380 65 c 0
 497 65 585 161 585 280 c 5
EndSplineSet
EndChar

StartChar: o
Encoding: 111 111 14
Width: 650
VWidth: 0
Flags: HMW
AnchorPoint: "ced" 325 0 basechar 0
AnchorPoint: "dot" 325 673 basechar 0
LayerCount: 2
Fore
SplineSet
140 260 m 0
 140 151 218 65 325 65 c 0
 432 65 510 151 510 260 c 4
 510 369 432 455 325 455 c 0
 218 455 140 369 140 260 c 0
55 260 m 0
 55 409 176 530 325 530 c 0
 474 530 595 409 595 260 c 0
 595 111 474 -10 325 -10 c 0
 176 -10 55 111 55 260 c 0
EndSplineSet
EndChar

StartChar: B
Encoding: 66 66 15
Width: 695
VWidth: 0
Flags: HMW
AnchorPoint: "ced" 327 0 basechar 0
AnchorPoint: "dot" 308 760 basechar 0
LayerCount: 2
Fore
SplineSet
360 398 m 5
 443 398 508 422 508 507 c 4
 508 592 443 620 360 620 c 5
 360 700 l 1
 489 700 598 631 598 507 c 0
 598 384 489 340 360 340 c 1
 360 398 l 5
100 700 m 1
 190 700 l 1
 190 0 l 1
 100 0 l 1
 100 700 l 1
100 80 m 1
 400 80 l 1
 400 0 l 1
 100 0 l 1
 100 80 l 1
100 700 m 1
 360 700 l 1
 360 620 l 1
 100 620 l 1
 100 700 l 1
100 398 m 1
 400 398 l 1
 400 318 l 1
 100 318 l 1
 100 398 l 1
400 80 m 5
 483 80 555 105 555 195 c 4
 555 285 483 318 400 318 c 5
 400 375 l 1
 529 375 645 324 645 195 c 0
 645 66 529 0 400 0 c 1
 400 80 l 5
EndSplineSet
EndChar

StartChar: K
Encoding: 75 75 16
Width: 745
VWidth: 0
Flags: HMW
AnchorPoint: "ced" 665 0 basechar 0
AnchorPoint: "dot" 355 760 basechar 0
LayerCount: 2
Fore
SplineSet
286 413 m 1
 390 413 l 5
 720 0 l 5
 616 0 l 1
 286 413 l 1
565 700 m 1
 670 700 l 5
 190 207 l 5
 105 230 l 1
 565 700 l 1
100 700 m 1
 190 700 l 1
 190 0 l 1
 100 0 l 1
 100 700 l 1
EndSplineSet
EndChar

StartChar: R
Encoding: 82 82 17
Width: 718
VWidth: 0
Flags: HMW
AnchorPoint: "ced" 610 0 basechar 0
AnchorPoint: "dot" 340 760 basechar 0
LayerCount: 2
Fore
SplineSet
328 320 m 1
 433 320 l 1
 673 0 l 1
 568 0 l 1
 328 320 l 1
400 338 m 1
 487 338 548 392 548 477 c 0
 548 562 487 620 400 620 c 1
 400 700 l 1
 529 700 638 602 638 477 c 0
 638 353 529 258 400 258 c 1
 400 338 l 1
100 700 m 1
 190 700 l 1
 190 0 l 1
 100 0 l 1
 100 700 l 1
105 700 m 1
 400 700 l 1
 400 620 l 1
 105 620 l 1
 105 700 l 1
105 338 m 1
 400 338 l 1
 400 258 l 1
 105 258 l 1
 105 338 l 1
EndSplineSet
EndChar

StartChar: P
Encoding: 80 80 18
Width: 643
VWidth: 0
Flags: HMW
AnchorPoint: "ced" 150 0 basechar 0
AnchorPoint: "dot" 320 760 basechar 0
LayerCount: 2
Fore
SplineSet
360 338 m 1
 448 338 508 392 508 477 c 0
 508 562 448 620 360 620 c 1
 360 700 l 1
 489 700 598 602 598 477 c 0
 598 353 489 258 360 258 c 1
 360 338 l 1
100 700 m 1
 190 700 l 1
 190 0 l 1
 100 0 l 1
 100 700 l 1
105 700 m 1
 360 700 l 1
 360 620 l 1
 105 620 l 1
 105 700 l 1
105 338 m 1
 360 338 l 1
 360 258 l 1
 105 258 l 1
 105 338 l 1
EndSplineSet
EndChar

StartChar: Q
Encoding: 81 81 19
Width: 849
VWidth: 0
Flags: HMW
AnchorPoint: "ced" 425 0 basechar 0
AnchorPoint: "dot" 425 760 basechar 0
LayerCount: 2
Fore
SplineSet
735 -44 m 1
 467 224 l 1
 525 282 l 5
 793 15 l 5
 735 -44 l 1
160 350 m 0
 160 194 274 70 425 70 c 0
 576 70 690 194 690 350 c 0
 690 506 576 630 425 630 c 0
 274 630 160 506 160 350 c 0
70 350 m 0
 70 549 230 710 425 710 c 0
 620 710 780 549 780 350 c 0
 780 151 620 -10 425 -10 c 0
 230 -10 70 151 70 350 c 0
EndSplineSet
EndChar

StartChar: J
Encoding: 74 74 20
Width: 599
VWidth: 0
Flags: HMW
AnchorPoint: "ced" 265 0 basechar 0
AnchorPoint: "dot" 265 760 basechar 0
LayerCount: 2
Fore
SplineSet
414 260 m 1
 414 700 l 1
 499 700 l 1
 499 260 l 1
 414 260 l 1
414 260 m 1
 499 260 l 1
 499 91 404 -10 265 -10 c 0
 157 -10 72 51 30 157 c 1
 98 194 l 5
 133 111 186 65 265 65 c 0
 362 65 414 141 414 260 c 1
EndSplineSet
EndChar

StartChar: S
Encoding: 83 83 21
Width: 625
VWidth: 0
Flags: HMW
AnchorPoint: "ced" 315 0 basechar 0
AnchorPoint: "dot" 335 760 basechar 0
LayerCount: 2
Fore
SplineSet
480 195 m 1
 565 195 l 1
 565 66 477 -10 328 -10 c 0
 199 -10 112 56 50 113 c 1
 104 176 l 5
 152 132 230 65 328 65 c 0
 421 65 480 105 480 195 c 1
175 524 m 1
 90 519 l 1
 90 630 196 710 315 710 c 0
 414 710 496 674 548 622 c 1
 498 566 l 1
 453 610 383 635 325 635 c 0
 222 635 175 581 175 524 c 1
330 404 m 0
 456.380859052 382.220224296 565 325 565 195 c 1
 480 195 l 1
 480 266 418.692464024 312.458201639 320 326 c 0
 196.581054688 342.934570312 90 404 90 519 c 1
 175 524 l 1
 175 459 231.9609375 420.895507812 330 404 c 0
EndSplineSet
EndChar

StartChar: M
Encoding: 77 77 22
Width: 932
VWidth: 0
Flags: HMW
AnchorPoint: "ced" 790 0 basechar 0
AnchorPoint: "dot" 470 760 basechar 0
LayerCount: 2
Fore
SplineSet
490 130 m 1
 442 130 l 1
 442 200 l 5
 490 200 l 5
 490 130 l 1
742 640 m 1
 752 700 l 1
 832 700 l 1
 832 680 l 1
 742 640 l 1
817 650 m 1
 490 130 l 1
 442 200 l 5
 752 700 l 1
 817 650 l 1
832 680 m 1
 832 0 l 1
 742 0 l 1
 742 640 l 1
 832 680 l 1
190 640 m 1
 100 680 l 1
 100 700 l 1
 180 700 l 1
 190 640 l 1
115 650 m 1
 180 700 l 1
 490 200 l 5
 442 130 l 1
 115 650 l 1
100 680 m 1
 190 640 l 1
 190 0 l 1
 100 0 l 1
 100 680 l 1
EndSplineSet
EndChar

StartChar: Y
Encoding: 89 89 23
Width: 680
VWidth: 0
Flags: HMW
AnchorPoint: "ced" 345 0 basechar 0
AnchorPoint: "dot" 337 760 basechar 0
LayerCount: 2
Fore
SplineSet
295 295 m 1
 385 295 l 1
 385 0 l 1
 295 0 l 1
 295 295 l 1
30 700 m 1
 130 700 l 1
 385 295 l 1
 335 217 l 1
 30 700 l 1
550 700 m 1
 650 700 l 1
 345 217 l 1
 295 295 l 1
 550 700 l 1
EndSplineSet
EndChar

StartChar: W
Encoding: 87 87 24
Width: 1065
VWidth: 0
Flags: HMW
AnchorPoint: "ced" 750 0 basechar 0
AnchorPoint: "dot" 530 760 basechar 0
LayerCount: 2
Fore
SplineSet
490 700 m 1
 575 700 l 1
 571 690 l 1
 494 690 l 1
 490 700 l 1
790 0 m 1
 710 0 l 1
 710 10 l 1
 790 10 l 1
 790 0 l 1
575 700 m 1
 790 10 l 1
 710 0 l 1
 494 690 l 1
 575 700 l 1
790 0 m 1
 710 10 l 1
 930 700 l 1
 1020 700 l 1
 790 0 l 1
355 0 m 1
 275 0 l 1
 275 10 l 1
 355 10 l 1
 355 0 l 1
135 700 m 1
 355 10 l 1
 275 0 l 1
 45 700 l 1
 135 700 l 1
355 0 m 1
 275 10 l 1
 490 700 l 1
 571 690 l 1
 355 0 l 1
EndSplineSet
EndChar

StartChar: N
Encoding: 78 78 25
Width: 790
VWidth: 0
Flags: HMW
AnchorPoint: "ced" 650 0 basechar 0
AnchorPoint: "dot" 400 760 basechar 0
LayerCount: 2
Fore
SplineSet
690 0 m 1
 610 0 l 1
 610 24 l 1
 690 14 l 1
 690 0 l 1
180 700 m 1
 180 680 l 1
 100 680 l 1
 100 700 l 1
 180 700 l 1
100 665 m 1
 180 700 l 1
 690 35 l 1
 610 0 l 1
 100 665 l 1
600 700 m 1
 690 700 l 1
 690 0 l 1
 600 20 l 1
 600 700 l 1
100 700 m 1
 190 680 l 1
 190 0 l 1
 100 0 l 1
 100 700 l 1
EndSplineSet
EndChar

StartChar: X
Encoding: 88 88 26
Width: 750
VWidth: 0
Flags: HMW
AnchorPoint: "ced" 645 0 basechar 0
AnchorPoint: "dot" 374 760 basechar 0
LayerCount: 2
Fore
SplineSet
65 700 m 1
 170 700 l 1
 705 0 l 1
 600 0 l 1
 65 700 l 1
580 700 m 1
 685 700 l 1
 150 0 l 1
 45 0 l 1
 580 700 l 1
EndSplineSet
EndChar

StartChar: Z
Encoding: 90 90 27
Width: 680
VWidth: 0
Flags: HMW
AnchorPoint: "ced" 495 0 basechar 0
AnchorPoint: "dot" 335 760 basechar 0
LayerCount: 2
Fore
SplineSet
595 630 m 1
 585 630 l 1
 585 700 l 1
 595 700 l 1
 595 630 l 1
65 70 m 1
 75 70 l 1
 75 0 l 1
 65 0 l 1
 65 70 l 1
85 700 m 1
 585 700 l 1
 585 620 l 1
 85 620 l 1
 85 700 l 1
75 80 m 1
 615 80 l 1
 615 0 l 1
 75 0 l 1
 75 80 l 1
495 630 m 1
 595 630 l 1
 165 70 l 5
 65 70 l 1
 495 630 l 1
EndSplineSet
EndChar

StartChar: l
Encoding: 108 108 28
Width: 265
VWidth: 0
Flags: HMW
AnchorPoint: "ced" 133 0 basechar 0
AnchorPoint: "dot" 133 793 basechar 0
LayerCount: 2
Fore
SplineSet
90 730 m 1
 175 730 l 1
 175 0 l 1
 90 0 l 1
 90 730 l 1
EndSplineSet
EndChar

StartChar: b
Encoding: 98 98 29
Width: 655
VWidth: 0
Flags: HMW
AnchorPoint: "ced" 356 0 basechar 0
AnchorPoint: "dot" 360 673 basechar 0
LayerCount: 2
Fore
SplineSet
170 260 m 0
 170 141 248 65 345 65 c 0
 442 65 515 141 515 260 c 4
 515 379 442 455 345 455 c 0
 248 455 170 379 170 260 c 0
135 260 m 0
 135 409 206 530 355 530 c 0
 484 530 600 419 600 260 c 0
 600 101 484 -10 355 -10 c 0
 206 -10 135 111 135 260 c 0
85 730 m 1
 170 730 l 1
 170 0 l 1
 85 0 l 1
 85 730 l 1
EndSplineSet
EndChar

StartChar: c
Encoding: 99 99 30
Width: 573
VWidth: 0
Flags: HMW
AnchorPoint: "ced" 325 0 basechar 0
AnchorPoint: "dot" 325 673 basechar 0
LayerCount: 2
Fore
SplineSet
140 260 m 4
 140 151 218 65 325 65 c 4
 389 65 443 96 480 145 c 5
 533 92 l 5
 486 28 412 -10 325 -10 c 4
 176 -10 55 111 55 260 c 4
 55 409 176 530 325 530 c 4
 412 530 485 491 532 428 c 5
 480 375 l 5
 443 424 389 455 325 455 c 4
 218 455 140 369 140 260 c 4
EndSplineSet
EndChar

StartChar: d
Encoding: 100 100 31
Width: 655
VWidth: 0
Flags: HMW
AnchorPoint: "ced" 300 0 basechar 0
AnchorPoint: "dot" 295 673 basechar 0
LayerCount: 2
Fore
SplineSet
485 260 m 0
 485 379 407 455 310 455 c 0
 213 455 140 379 140 260 c 0
 140 141 213 65 310 65 c 0
 407 65 485 141 485 260 c 0
520 260 m 0
 520 111 449 -10 300 -10 c 0
 171 -10 55 101 55 260 c 0
 55 419 171 530 300 530 c 0
 449 530 520 409 520 260 c 0
570 730 m 5
 570 0 l 5
 485 0 l 1
 485 730 l 1
 570 730 l 5
EndSplineSet
EndChar

StartChar: k
Encoding: 107 107 32
Width: 615
VWidth: 0
Flags: HMW
AnchorPoint: "ced" 535 0 basechar 0
AnchorPoint: "dot" 325 673 basechar 0
LayerCount: 2
Fore
SplineSet
245 291 m 1
 330 311 l 1
 590 0 l 1
 492 0 l 1
 245 291 l 1
464 520 m 1
 570 520 l 1
 170 110 l 1
 110 154 l 1
 464 520 l 1
85 730 m 1
 170 730 l 1
 170 0 l 1
 85 0 l 1
 85 730 l 1
EndSplineSet
EndChar

StartChar: e
Encoding: 101 101 33
Width: 615
VWidth: 0
Flags: HMW
AnchorPoint: "ced" 320 0 basechar 0
AnchorPoint: "dot" 310 673 basechar 0
LayerCount: 2
Fore
SplineSet
565 260 m 1
 565 230 l 1
 480 230 l 1
 480 260 l 1
 565 260 l 1
480 230 m 1
 114 230 l 1
 114 297 l 1
 480 297 l 1
 480 230 l 1
480 260 m 1
 480 379 417 455 310 455 c 0
 203 455 140 379 140 260 c 1
 55 260 l 1
 55 419 171 530 310 530 c 0
 449 530 565 419 565 260 c 1
 480 260 l 1
55 260 m 1
 140 260 l 1
 140 141 213 65 320 65 c 0
 384 65 446 98 483 147 c 1
 538 92 l 1
 491 28 407 -10 320 -10 c 0
 171 -10 55 101 55 260 c 1
EndSplineSet
EndChar

StartChar: p
Encoding: 112 112 34
Width: 655
VWidth: 0
Flags: HMW
AnchorPoint: "ced" 355 0 basechar 0
AnchorPoint: "dot" 360 673 basechar 0
LayerCount: 2
Fore
SplineSet
170 260 m 0
 170 141 248 65 345 65 c 0
 442 65 515 141 515 260 c 0
 515 379 442 455 345 455 c 0
 248 455 170 379 170 260 c 0
135 260 m 0
 135 409 206 530 355 530 c 0
 484 530 600 419 600 260 c 0
 600 101 484 -10 355 -10 c 0
 206 -10 135 111 135 260 c 0
85 -200 m 1
 85 520 l 1
 170 520 l 1
 170 -200 l 1
 85 -200 l 1
EndSplineSet
EndChar

StartChar: q
Encoding: 113 113 35
Width: 655
VWidth: 0
Flags: HMW
AnchorPoint: "ced" 300 0 basechar 0
AnchorPoint: "dot" 295 673 basechar 0
LayerCount: 2
Fore
SplineSet
485 260 m 0
 485 379 407 455 310 455 c 0
 213 455 140 379 140 260 c 0
 140 141 213 65 310 65 c 0
 407 65 485 141 485 260 c 0
520 260 m 0
 520 111 449 -10 300 -10 c 0
 171 -10 55 101 55 260 c 0
 55 419 171 530 300 530 c 0
 449 530 520 409 520 260 c 0
570 -200 m 1
 485 -200 l 1
 485 520 l 1
 570 520 l 1
 570 -200 l 1
EndSplineSet
EndChar

StartChar: h
Encoding: 104 104 36
Width: 635
VWidth: 0
Flags: HMW
AnchorPoint: "ced" 510 0 basechar 0
AnchorPoint: "dot" 350 673 basechar 0
LayerCount: 2
Fore
SplineSet
555 300 m 1
 555 0 l 1
 470 0 l 5
 470 300 l 5
 555 300 l 1
85 730 m 1
 170 730 l 1
 170 0 l 1
 85 0 l 1
 85 730 l 1
470 300 m 5
 470 389 440 455 330 455 c 0
 231 455 170 390 170 280 c 1
 135 280 l 1
 135 419 211 530 350 530 c 0
 479 530 555 429 555 300 c 1
 470 300 l 5
EndSplineSet
EndChar

StartChar: n
Encoding: 110 110 37
Width: 635
VWidth: 0
Flags: HMW
AnchorPoint: "ced" 520 0 basechar 0
AnchorPoint: "dot" 330 673 basechar 0
LayerCount: 2
Fore
SplineSet
555 300 m 1
 555 0 l 1
 470 0 l 5
 470 300 l 5
 555 300 l 1
85 520 m 1
 170 520 l 1
 170 0 l 1
 85 0 l 1
 85 520 l 1
470 300 m 5
 470 390 440 455 330 455 c 0
 232 455 170 390 170 280 c 1
 135 280 l 1
 135 419 211 530 350 530 c 0
 479 530 555 429 555 300 c 1
 470 300 l 5
EndSplineSet
EndChar

StartChar: m
Encoding: 109 109 38
Width: 900
VWidth: 0
Flags: HMW
AnchorPoint: "ced" 785 0 basechar 0
AnchorPoint: "dot" 450 673 basechar 0
LayerCount: 2
Fore
SplineSet
825 300 m 1
 825 0 l 1
 740 0 l 1
 740 300 l 1
 825 300 l 1
740 300 m 1
 740 390 720 460 625 460 c 0
 542 460 497 390 497 280 c 1
 462 280 l 1
 462 419 521 530 645 530 c 0
 769 530 825 429 825 300 c 1
 740 300 l 1
497 300 m 1
 497 0 l 1
 413 0 l 1
 413 300 l 1
 497 300 l 1
85 520 m 1
 170 520 l 1
 170 0 l 1
 85 0 l 1
 85 520 l 1
413 300 m 1
 413 390 395 460 300 460 c 0
 217 460 170 390 170 280 c 1
 135 280 l 1
 135 419 196 530 320 530 c 0
 444 530 497 429 497 300 c 1
 413 300 l 1
EndSplineSet
EndChar

StartChar: r
Encoding: 114 114 39
Width: 410
VWidth: 0
Flags: HMW
AnchorPoint: "ced" 140 0 basechar 0
AnchorPoint: "dot" 220 673 basechar 0
LayerCount: 2
Fore
SplineSet
85 520 m 1
 170 520 l 1
 170 0 l 1
 85 0 l 1
 85 520 l 1
380 445 m 1
 360 445 l 2
 236 445 170 380 170 270 c 1
 135 270 l 1
 135 409 211 520 380 520 c 1
 380 445 l 1
EndSplineSet
EndChar

StartChar: u
Encoding: 117 117 40
Width: 635
VWidth: 0
Flags: HMW
AnchorPoint: "ced" 285 0 basechar 0
AnchorPoint: "dot" 305 673 basechar 0
LayerCount: 2
Fore
SplineSet
80 220 m 1
 80 520 l 1
 165 520 l 1
 165 220 l 1
 80 220 l 1
550 0 m 1
 465 0 l 1
 465 520 l 1
 550 520 l 1
 550 0 l 1
165 220 m 1
 165 130 195 65 305 65 c 0
 403 65 465 130 465 240 c 1
 500 240 l 1
 500 101 424 -10 285 -10 c 0
 156 -10 80 91 80 220 c 1
 165 220 l 1
EndSplineSet
EndChar

StartChar: g
Encoding: 103 103 41
Width: 655
VWidth: 0
Flags: HMW
AnchorPoint: "dot" 300 673 basechar 0
LayerCount: 2
Fore
SplineSet
323 -145 m 1
 323 -220 l 1
 186 -220 104 -172 57 -108 c 1
 113 -52 l 5
 150 -101 210 -145 323 -145 c 1
570 20 m 1
 485 20 l 1
 485 520 l 1
 570 520 l 1
 570 20 l 1
520 260 m 0
 520 111 449 -10 300 -10 c 0
 171 -10 55 101 55 260 c 0
 55 419 171 530 300 530 c 0
 449 530 520 409 520 260 c 0
485 260 m 0
 485 379 407 455 310 455 c 0
 213 455 140 379 140 260 c 0
 140 141 213 65 310 65 c 0
 407 65 485 141 485 260 c 0
485 20 m 1
 570 20 l 1
 570 -119 452 -220 323 -220 c 1
 323 -145 l 1
 400 -145 485 -79 485 20 c 1
EndSplineSet
EndChar

StartChar: i
Encoding: 105 105 42
Width: 255
VWidth: 0
Flags: HMW
AnchorPoint: "ced" 125 0 basechar 0
LayerCount: 2
Fore
SplineSet
69 682 m 4
 69 714 95 740 127 740 c 4
 159 740 185 714 185 682 c 4
 185 650 159 624 127 624 c 4
 95 624 69 650 69 682 c 4
85 520 m 1
 170 520 l 1
 170 0 l 1
 85 0 l 1
 85 520 l 1
EndSplineSet
EndChar

StartChar: t
Encoding: 116 116 43
Width: 420
VWidth: 0
Flags: HMW
AnchorPoint: "ced" 257 0 basechar 0
AnchorPoint: "dot" 285 673 basechar 0
LayerCount: 2
Fore
SplineSet
40 520 m 1
 370 520 l 1
 370 445 l 1
 40 445 l 1
 40 520 l 1
195 140 m 1
 110 140 l 1
 110 673 l 1
 195 673 l 1
 195 140 l 1
264 65 m 1
 308 65 335 84 352 103 c 5
 392 42 l 1
 365 13 320 -10 258 -10 c 1
 264 65 l 1
195 140 m 1
 195 100 216 65 264 65 c 1
 258 -10 l 1
 169 -10 110 61 110 140 c 1
 195 140 l 1
EndSplineSet
EndChar

StartChar: a
Encoding: 97 97 44
Width: 580
VWidth: 0
Flags: HMW
AnchorPoint: "ced" 455 0 basechar 0
AnchorPoint: "ring" 285 673 basechar 0
AnchorPoint: "dot" 285 673 basechar 0
LayerCount: 2
Fore
SplineSet
320 312 m 1
 470 312 l 1
 470 248 l 1
 350 248 l 1
 320 312 l 1
420 330 m 1
 420 410 394 455 288 455 c 1
 294 530 l 1
 437 530 505 449 505 330 c 1
 420 330 l 1
288 455 m 1
 214 455 175 432 126 392 c 1
 80 450 l 1
 137 499 192 530 294 530 c 1
 288 455 l 1
420 330 m 1
 505 330 l 1
 505 0 l 1
 420 0 l 1
 420 330 l 1
128 155 m 1
 128 97 167 65 270 65 c 0
 348 65 420 100 420 180 c 1
 455 180 l 1
 455 71 379 -10 240 -10 c 0
 141 -10 43 41 43 160 c 1
 128 155 l 1
320 312 m 1
 350 248 l 1
 201 248 128 240 128 155 c 1
 43 160 l 1
 43 295 183 312 320 312 c 1
EndSplineSet
EndChar

StartChar: j
Encoding: 106 106 45
Width: 255
VWidth: 0
Flags: HMW
LayerCount: 2
Fore
SplineSet
73 682 m 0
 73 714 99 740 131 740 c 0
 163 740 189 714 189 682 c 0
 189 650 163 624 131 624 c 0
 99 624 73 650 73 682 c 0
  Spiro
    73 682 o
    80.9108 711.233 o
    101.767 732.089 o
    131 740 o
    160.233 732.089 o
    181.089 711.233 o
    189 682 o
    181.089 652.767 o
    160.233 631.911 o
    131 624 o
    101.767 631.911 o
    80.9108 652.767 o
    0 0 z
  EndSpiro
89 520 m 1
 174 520 l 1
 174 -60 l 1
 89 -60 l 1
 89 520 l 1
  Spiro
    89 520 v
    174 520 v
    174 -60 v
    89 -60 v
    0 0 z
  EndSpiro
26 -135 m 5
 32 -210 l 5
 -25 -210 -75 -192 -102 -158 c 1
 -62 -97 l 1
 -45 -116 -17 -135 26 -135 c 5
89 -60 m 1
 174 -60 l 1
 174 -139 121 -210 32 -210 c 5
 26 -135 l 5
 63 -135 89 -100 89 -60 c 1
EndSplineSet
EndChar

StartChar: s
Encoding: 115 115 46
Width: 520
VWidth: 0
Flags: HMW
AnchorPoint: "ced" 265 0 basechar 0
AnchorPoint: "dot" 265 673 basechar 0
LayerCount: 2
Fore
SplineSet
390 150 m 1
 475 150 l 1
 475 71 414 -10 275 -10 c 0
 166 -10 100 37 45 104 c 1
 103 158 l 1
 149 108 197 65 275 65 c 0
 348 65 390 90 390 150 c 1
155 388 m 1
 70 388 l 1
 70 464 146 530 255 530 c 0
 364 530 416 496 458 448 c 1
 406 390 l 5
 374 422 343 455 255 455 c 4
 177 455 155 420 155 388 c 1
280 307 m 0
 397 288 475 260 475 150 c 1
 390 150 l 1
 390 200 358.594726562 220.76171875 250 236 c 0
 146.522460938 250.520507812 70 293 70 388 c 1
 155 388 l 1
 155 348 182.280273438 322.869140625 280 307 c 0
EndSplineSet
EndChar

StartChar: v
Encoding: 118 118 47
Width: 590
VWidth: 0
Flags: HMW
AnchorPoint: "ced" 297 0 basechar 0
AnchorPoint: "dot" 293 673 basechar 0
LayerCount: 2
Fore
SplineSet
335 0 m 1
 255 0 l 1
 255 5 l 1
 335 5 l 1
 335 0 l 1
255 5 m 1
 470 520 l 1
 555 520 l 1
 335 0 l 1
 255 5 l 1
35 520 m 1
 120 520 l 1
 335 5 l 1
 255 0 l 1
 35 520 l 1
EndSplineSet
EndChar

StartChar: f
Encoding: 102 102 48
Width: 375
VWidth: 0
Flags: HMW
AnchorPoint: "ced" 155 0 basechar 0
LayerCount: 2
Fore
SplineSet
45 520 m 5
 348 520 l 5
 348 445 l 5
 45 445 l 5
 45 520 l 5
200 590 m 5
 200 0 l 5
 115 0 l 5
 115 590 l 5
 200 590 l 5
268 665 m 5
 262 740 l 5
 324 740 369 718 395 688 c 5
 355 627 l 5
 336 648 312 665 268 665 c 5
200 590 m 5
 115 590 l 5
 115 669 173 740 262 740 c 5
 268 665 l 5
 213 665 200 629 200 590 c 5
EndSplineSet
Substitution2: "fi-1" fi
EndChar

StartChar: y
Encoding: 121 121 49
Width: 579
VWidth: 0
Flags: HMW
AnchorPoint: "dot" 295 673 basechar 0
LayerCount: 2
Fore
SplineSet
39 520 m 1
 129 520 l 1
 354 5 l 1
 269 0 l 1
 39 520 l 1
163 -135 m 1
 169 -210 l 1
 112 -210 62 -184 35 -150 c 1
 75 -89 l 5
 92 -108 119 -135 163 -135 c 1
244 -60 m 2
 459 520 l 1
 544 520 l 1
 329 -60 l 2
 299.508789062 -139.55859375 258 -210 169 -210 c 1
 163 -135 l 1
 201 -135 229.153320312 -100.05078125 244 -60 c 2
EndSplineSet
EndChar

StartChar: w
Encoding: 119 119 50
Width: 795
VWidth: 0
Flags: HMW
AnchorPoint: "ced" 565 0 basechar 0
AnchorPoint: "dot" 398 673 basechar 0
LayerCount: 2
Fore
SplineSet
365 520 m 1
 430 520 l 1
 430 470 l 5
 365 470 l 5
 365 520 l 1
605 0 m 1
 530 0 l 1
 530 5 l 1
 605 25 l 1
 605 0 l 1
530 5 m 1
 670 520 l 1
 755 520 l 1
 605 0 l 1
 530 5 l 1
375 470 m 5
 430 520 l 1
 595 25 l 1
 530 0 l 1
 375 470 l 5
265 0 m 1
 190 0 l 1
 190 25 l 1
 265 5 l 1
 265 0 l 1
200 25 m 1
 365 520 l 1
 420 470 l 5
 265 0 l 1
 200 25 l 1
40 520 m 1
 125 520 l 1
 265 5 l 1
 190 0 l 1
 40 520 l 1
EndSplineSet
EndChar

StartChar: x
Encoding: 120 120 51
Width: 615
VWidth: 0
Flags: HMW
AnchorPoint: "ced" 515 0 basechar 0
AnchorPoint: "dot" 305 673 basechar 0
LayerCount: 2
Fore
SplineSet
40 0 m 1
 455 520 l 1
 555 520 l 5
 140 0 l 5
 40 0 l 1
60 520 m 1
 160 520 l 5
 575 0 l 5
 475 0 l 1
 60 520 l 1
EndSplineSet
EndChar

StartChar: z
Encoding: 122 122 52
Width: 570
VWidth: 0
Flags: HMW
AnchorPoint: "ced" 445 0 basechar 0
AnchorPoint: "dot" 290 673 basechar 0
LayerCount: 2
Fore
SplineSet
55 65 m 1
 75 65 l 1
 75 0 l 1
 55 0 l 1
 55 65 l 1
75 75 m 1
 515 75 l 1
 515 0 l 1
 75 0 l 1
 75 75 l 1
485 520 m 1
 505 520 l 1
 505 455 l 1
 485 455 l 1
 485 520 l 1
75 520 m 1
 485 520 l 1
 485 445 l 1
 75 445 l 1
 75 520 l 1
405 455 m 1
 505 455 l 1
 155 65 l 5
 55 65 l 1
 405 455 l 1
EndSplineSet
EndChar

StartChar: zero
Encoding: 48 48 53
Width: 600
VWidth: 0
Flags: HMW
LayerCount: 2
Fore
SplineSet
105 350 m 0
 105 193 168 70 300 70 c 0
 432 70 495 193 495 350 c 4
 495 507 432 630 300 630 c 0
 168 630 105 507 105 350 c 0
15 350 m 0
 15 549 125 710 300 710 c 0
 475 710 585 549 585 350 c 0
 585 151 475 -10 300 -10 c 0
 125 -10 15 151 15 350 c 0
EndSplineSet
EndChar

StartChar: one
Encoding: 49 49 54
Width: 600
VWidth: 0
Flags: HMW
LayerCount: 2
Fore
SplineSet
380 700 m 5
 380 676 l 5
 300 676 l 1
 300 700 l 1
 380 700 l 5
300 700 m 1
 356 641 l 1
 156 501 l 1
 120 570 l 1
 300 700 l 1
290 690 m 1
 380 700 l 5
 380 0 l 5
 290 0 l 1
 290 690 l 1
EndSplineSet
EndChar

StartChar: six
Encoding: 54 54 55
Width: 600
VWidth: 0
Flags: HMW
LayerCount: 2
Fore
SplineSet
130 220 m 1
 95 220 l 1
 95 349 201 445 330 445 c 1
 300 380 l 1
 192 380 130 310 130 220 c 1
130 220 m 0
 130 130 192 60 300 60 c 0
 408 60 470 130 470 220 c 4
 470 310 408 380 300 380 c 1
 330 445 l 1
 459 445 550 349 550 220 c 0
 550 91 449 -10 300 -10 c 0
 151 -10 50 91 50 220 c 0
 50 277.265805412 73.9301886792 327.205660377 108 377 c 2
 329 700 l 1
 429 700 l 1
 177.537178791 351.754237294 l 1
 185.174804688 344.909179688 l 1
 146.650390625 315.858398438 130 271.161132812 130 220 c 0
EndSplineSet
EndChar

StartChar: period
Encoding: 46 46 56
Width: 230
VWidth: 0
Flags: HMW
LayerCount: 2
Fore
SplineSet
50 55 m 4
 50 91 79 120 115 120 c 4
 151 120 180 91 180 55 c 4
 180 19 151 -10 115 -10 c 4
 79 -10 50 19 50 55 c 4
EndSplineSet
EndChar

StartChar: comma
Encoding: 44 44 58
Width: 254
VWidth: 0
Flags: HMW
LayerCount: 2
Fore
SplineSet
70 55 m 4
 70 91 99 120 137 120 c 4
 175 120 204 91 204 55 c 4
 204 43 200.228515625 24.197265625 191 10 c 6
 100 -130 l 5
 50 -130 l 5
 110 -5 l 5
 89 3 70 27 70 55 c 4
EndSplineSet
EndChar

StartChar: two
Encoding: 50 50 60
Width: 600
VWidth: 0
Flags: HMW
LayerCount: 2
Fore
SplineSet
50 65 m 1
 70 65 l 1
 70 0 l 1
 50 0 l 1
 50 65 l 1
435 516 m 1
 435 575 387 635 300 635 c 0
 211 635 159 568 124 485 c 5
 50 523 l 1
 92 629 182 710 300 710 c 0
 429 710 520 615 520 516 c 1
 435 516 l 1
70 0 m 1
 70 75 l 1
 550 75 l 1
 550 0 l 1
 70 0 l 1
364 251 m 2
 160 65 l 1
 50 65 l 1
 303 300 l 2
 399.442382812 388.848632812 435 445 435 516 c 1
 520 516 l 1
 520 406 467.044921875 344.953125 364 251 c 2
EndSplineSet
EndChar

StartChar: three
Encoding: 51 51 62
Width: 600
VWidth: 0
Flags: HMW
LayerCount: 2
Fore
SplineSet
250 384 m 1
 437 384 550 347 550 197 c 0
 550 57 427 -10 300 -10 c 0
 210 -10 116 14 50 99 c 1
 105 152 l 5
 146 97 232 64 300 64 c 0
 383 64 465 108 465 197 c 0
 465 286 393 330 250 330 c 1
 250 384 l 1
75 602 m 1
 124 660 186 710 300 710 c 0
 434 710 520 629 520 530 c 0
 520 411 424 350 250 350 c 1
 250 405 l 1
 380 405 435 452 435 520 c 0
 435 588 390 635 300 635 c 0
 217 635 171 597 131 549 c 1
 75 602 l 1
EndSplineSet
EndChar

StartChar: eight
Encoding: 56 56 63
Width: 600
VWidth: 0
Flags: HMW
LayerCount: 2
Fore
SplineSet
165 520 m 0
 165 452 220 405 300 405 c 0
 380 405 435 452 435 520 c 4
 435 588 380 635 300 635 c 0
 220 635 165 588 165 520 c 0
80 530 m 0
 80 629 176 710 300 710 c 0
 424 710 520 629 520 530 c 0
 520 411 424 350 300 350 c 0
 176 350 80 411 80 530 c 0
50 187 m 4
 50 327 163 384 300 384 c 0
 437 384 550 327 550 187 c 4
 550 67 437 -10 300 -10 c 0
 163 -10 50 67 50 187 c 4
135 197 m 0
 135 108 207 64 300 64 c 0
 393 64 465 108 465 197 c 4
 465 286 393 330 300 330 c 0
 207 330 135 286 135 197 c 0
EndSplineSet
EndChar

StartChar: four
Encoding: 52 52 64
Width: 600
VWidth: 0
Flags: HMW
LayerCount: 2
Fore
SplineSet
40 210 m 1
 60 210 l 1
 60 145 l 1
 40 145 l 1
 40 210 l 1
60 220 m 1
 550 220 l 1
 550 145 l 1
 60 145 l 1
 60 220 l 1
470 700 m 1
 470 676 l 1
 375 676 l 1
 375 700 l 1
 470 700 l 1
375 700 m 1
 440 679 l 1
 125 210 l 1
 40 210 l 1
 375 700 l 1
385 680 m 1
 470 700 l 1
 470 0 l 1
 385 0 l 1
 385 680 l 1
EndSplineSet
EndChar

StartChar: five
Encoding: 53 53 65
Width: 600
VWidth: 0
Flags: HMW
LayerCount: 2
Fore
SplineSet
70 311 m 1
 80 346 l 1
 130 346 l 1
 130 311 l 1
 70 311 l 1
320 455 m 1
 447 455 550 360 550 220 c 0
 550 70 427 -10 300 -10 c 0
 210 -10 116 14 50 99 c 1
 110 157 l 5
 151 102 227 66 300 66 c 0
 383 66 465 121 465 220 c 0
 465 309 413 380 300 380 c 1
 320 455 l 1
70 311 m 1
 130 700 l 1
 205 700 l 1
 155 341 l 1
 70 311 l 1
130 700 m 1
 510 700 l 1
 510 625 l 1
 130 625 l 1
 130 700 l 1
300 380 m 1
 223 380 170 360 130 311 c 1
 100 311 l 1
 130 400 181 455 320 455 c 1
 300 380 l 1
EndSplineSet
EndChar

StartChar: seven
Encoding: 55 55 66
Width: 600
VWidth: 0
Flags: HMW
LayerCount: 2
Fore
SplineSet
551 640 m 1
 241 0 l 1
 154 0 l 5
 464 640 l 5
 551 640 l 1
530 700 m 1
 551 700 l 1
 551 640 l 1
 530 640 l 1
 530 700 l 1
50 700 m 1
 530 700 l 1
 530 625 l 1
 50 625 l 1
 50 700 l 1
EndSplineSet
EndChar

StartChar: exclam
Encoding: 33 33 67
Width: 230
VWidth: 0
Flags: HMW
LayerCount: 2
Fore
SplineSet
66 490 m 1
 164 490 l 1
 137 250 l 1
 93 250 l 1
 66 490 l 1
66 730 m 1
 164 730 l 1
 164 490 l 1
 66 490 l 1
 66 730 l 1
EndSplineSet
Refer: 56 46 S 1 0 0 1 0 0 2
EndChar

StartChar: quotesingle
Encoding: 39 39 69
Width: 170
VWidth: 0
Flags: HMW
LayerCount: 2
Fore
SplineSet
30 685 m 0
 30 715 55 740 85 740 c 0
 115 740 140 715 140 685 c 0
 140 678.99609375 139.080078125 673.501953125 138.157226562 667.750976562 c 2
 107 480 l 1
 63 480 l 1
 31.8427734375 667.750976562 l 2
 30.9443359375 673.344726562 30 678.99609375 30 685 c 0
EndSplineSet
EndChar

StartChar: numbersign
Encoding: 35 35 70
Width: 810
VWidth: 0
Flags: HMW
LayerCount: 2
Fore
SplineSet
710 240 m 1
 710 165 l 1
 60 165 l 1
 60 240 l 1
 710 240 l 1
750 535 m 1
 750 460 l 1
 100 460 l 1
 100 535 l 1
 750 535 l 1
565 700 m 1
 645 700 l 1
 525 0 l 1
 445 0 l 1
 565 700 l 1
285 700 m 1
 365 700 l 1
 245 0 l 1
 165 0 l 1
 285 700 l 1
EndSplineSet
EndChar

StartChar: percent
Encoding: 37 37 71
Width: 940
VWidth: 0
Flags: HMW
LayerCount: 2
Fore
SplineSet
100 550 m 0
 100 481 154 425 220 425 c 0
 286 425 340 481 340 550 c 0
 340 619 286 675 220 675 c 0
 154 675 100 619 100 550 c 0
30 550 m 0
 30 655 115 740 220 740 c 0
 325 740 410 655 410 550 c 0
 410 445 325 360 220 360 c 0
 115 360 30 445 30 550 c 0
600 180 m 0
 600 111 654 55 720 55 c 0
 786 55 840 111 840 180 c 0
 840 249 786 305 720 305 c 0
 654 305 600 249 600 180 c 0
530 180 m 0
 530 285 615 370 720 370 c 0
 825 370 910 285 910 180 c 0
 910 75 825 -10 720 -10 c 0
 615 -10 530 75 530 180 c 0
690 730 m 1
 770 730 l 1
 250 0 l 1
 170 0 l 1
 690 730 l 1
EndSplineSet
EndChar

StartChar: dollar
Encoding: 36 36 72
Width: 600
VWidth: 0
Flags: HMW
LayerCount: 2
Fore
SplineSet
281 780 m 1
 351 780 l 1
 351 -80 l 1
 281 -80 l 1
 281 780 l 1
EndSplineSet
Refer: 21 83 N 1 0 0 1 -10 0 2
EndChar

StartChar: asterisk
Encoding: 42 42 73
Width: 324
VWidth: 0
Flags: HMW
LayerCount: 2
Fore
SplineSet
45 483 m 5
 20 527 l 5
 279 677 l 5
 304 633 l 5
 45 483 l 5
20 633 m 5
 45 677 l 5
 304 527 l 5
 279 483 l 5
 20 633 l 5
137 730 m 5
 187 730 l 5
 187 430 l 5
 137 430 l 5
 137 730 l 5
EndSplineSet
EndChar

StartChar: slash
Encoding: 47 47 74
Width: 430
VWidth: 0
Flags: HMW
LayerCount: 2
Fore
SplineSet
380 780 m 5
 450 780 l 5
 50 -80 l 5
 -20 -80 l 5
 380 780 l 5
EndSplineSet
EndChar

StartChar: ampersand
Encoding: 38 38 75
Width: 715
VWidth: 0
Flags: HMW
LayerCount: 2
Fore
SplineSet
305 395 m 0
 381.7890625 415.8046875 435 480 435 530 c 5
 515 530 l 5
 515 435 427.557617188 367.01171875 335 345 c 0
 237.270507812 321.758789062 150 291 150 190 c 1
 70 190 l 1
 70 330 199.364257812 366.379882812 305 395 c 0
235 530 m 5
 155 530 l 5
 155 639 226 710 335 710 c 0
 444 710 515 639 515 530 c 5
 435 530 l 5
 435 589 392 635 335 635 c 0
 278 635 235 589 235 530 c 5
301 291 m 2
 208.989257812 392.038085938 155 440 155 530 c 5
 235 530 l 5
 235 469 275.012695312 434.572265625 361 339 c 2
 665 0 l 1
 565 0 l 1
 301 291 l 2
580 310 m 1
 650 284 l 1
 620 115 489 -10 320 -10 c 4
 171 -10 70 71 70 190 c 5
 150 190 l 5
 150 121 223 65 330 65 c 0
 447 65 550 161 580 310 c 1
EndSplineSet
EndChar

StartChar: parenleft
Encoding: 40 40 76
Width: 275
VWidth: 0
Flags: HMW
LayerCount: 2
Fore
SplineSet
195 740 m 5
 255 720 l 5
 95 460 95 70 255 -190 c 5
 195 -210 l 5
 -5 100 -5 430 195 740 c 5
EndSplineSet
EndChar

StartChar: hyphen
Encoding: 45 45 78
Width: 430
VWidth: 0
Flags: HMW
LayerCount: 2
Fore
SplineSet
65 335 m 5
 365 335 l 5
 365 260 l 5
 65 260 l 5
 65 335 l 5
EndSplineSet
EndChar

StartChar: plus
Encoding: 43 43 79
Width: 510
VWidth: 0
Flags: HMW
LayerCount: 2
Fore
SplineSet
295 589 m 5
 295 134 l 5
 215 134 l 5
 215 589 l 5
 295 589 l 5
30 399 m 5
 480 399 l 5
 480 324 l 5
 30 324 l 5
 30 399 l 5
EndSplineSet
EndChar

StartChar: equal
Encoding: 61 61 80
Width: 510
VWidth: 0
Flags: HMW
LayerCount: 2
Fore
SplineSet
30 275 m 5
 480 275 l 5
 480 200 l 5
 30 200 l 5
 30 275 l 5
30 510 m 5
 480 510 l 5
 480 435 l 5
 30 435 l 5
 30 510 l 5
EndSplineSet
EndChar

StartChar: backslash
Encoding: 92 92 81
Width: 430
VWidth: 0
Flags: HMW
LayerCount: 2
Fore
SplineSet
50 780 m 5
 450 -80 l 5
 380 -80 l 5
 -20 780 l 5
 50 780 l 5
EndSplineSet
EndChar

StartChar: less
Encoding: 60 60 82
Width: 510
VWidth: 0
Flags: HMW
LayerCount: 2
Fore
SplineSet
30 395 m 5
 480 195 l 5
 480 120 l 5
 30 320 l 5
 30 395 l 5
30 395 m 5
 480 595 l 5
 480 520 l 5
 30 320 l 5
 30 395 l 5
EndSplineSet
EndChar

StartChar: question
Encoding: 63 63 84
Width: 555
VWidth: 0
Flags: HMW
LayerCount: 2
Fore
SplineSet
334 438 m 0
 389.67578125 466.341796875 415 506 415 556 c 1
 500 556 l 1
 500 461 458.134765625 411.75 380 374 c 0
 321.237304688 345.609375 295 331 295 250 c 1
 215 250 l 1
 195 400 264.790039062 402.768554688 334 438 c 0
415 556 m 1
 415 615 372 665 285 665 c 0
 196 665 144 613 109 550 c 1
 40 593 l 1
 82 679 162 740 285 740 c 0
 419 740 500 655 500 556 c 1
 415 556 l 1
EndSplineSet
Refer: 56 46 S 1 0 0 1 145 0 2
EndChar

StartChar: at
Encoding: 64 64 85
Width: 1050
VWidth: 0
Flags: HMW
LayerCount: 2
Fore
SplineSet
525 260 m 1048
700 260 m 0,0,1
 700 379 622 455 525 455 c 0,2,3
 428 455 350 379 350 260 c 0,4,5
 350 141 428 65 525 65 c 0,6,7
 622 65 700 141 700 260 c 0,0,1
735 260 m 0,8,9
 735 111 664 -10 515 -10 c 0,10,11
 386 -10 270 101 270 260 c 0,12,13
 270 419 386 530 515 530 c 0,14,15
 664 530 735 409 735 260 c 0,8,9
780 520 m 1,16,-1
 780 120 l 1,17,-1
 700 100 l 1,18,-1
 700 520 l 1,19,-1
 780 520 l 1,16,-1
55 260 m 0,16,17
 55 519 246 730 525 730 c 0,18,19
 784 730 995 559 995 300 c 0,20,21
 995 63.638671875 873.768554688 -10.2880859375 797.8671875 -10.2880859375 c 0,0,0
 723.793945312 -10.2880859375 700 43.19921875 700 100 c 1,1,-1
 780 120 l 5,2,3
 780 60.53515625 790.893554688 32.859375 827.37890625 32.859375 c 4,0,0
 878.646484375 32.859375 964 115.765625 964 300 c 0,1,2
 964 543 768 701 525 701 c 0,3,4
 262 701 86 503 86 260 c 0,5,6
 86 17 282 -181 525 -181 c 1,7,-1
 525 -210 l 1,8,9
 266 -210 55 1 55 260 c 0,16,17
EndSplineSet
EndChar

StartChar: bracketleft
Encoding: 91 91 86
Width: 295
VWidth: 0
Flags: HMW
LayerCount: 2
Fore
SplineSet
125 654 m 1
 125 730 l 1
 275 730 l 1
 275 654 l 1
 125 654 l 1
125 -200 m 1
 125 -124 l 1
 275 -124 l 1
 275 -200 l 1
 125 -200 l 1
45 730 m 1
 125 730 l 1
 125 -200 l 1
 45 -200 l 1
 45 730 l 1
EndSplineSet
EndChar

StartChar: asciicircum
Encoding: 94 94 88
Width: 510
VWidth: 0
Flags: HMW
LayerCount: 2
Fore
SplineSet
420 430 m 5
 220 730 l 5
 290 730 l 5
 490 430 l 5
 420 430 l 5
220 730 m 5
 290 730 l 5
 90 430 l 5
 20 430 l 5
 220 730 l 5
EndSplineSet
EndChar

StartChar: underscore
Encoding: 95 95 89
Width: 600
VWidth: 0
Flags: HMW
LayerCount: 2
Fore
SplineSet
-2 -80 m 5
 602 -80 l 5
 602 -160 l 5
 -2 -160 l 5
 -2 -80 l 5
EndSplineSet
EndChar

StartChar: braceleft
Encoding: 123 123 90
Width: 349
VWidth: 0
Flags: HMW
LayerCount: 2
Fore
SplineSet
45 305 m 5
 63 305 l 5
 63 225 l 5
 45 225 l 5
 45 305 l 5
147 150 m 5
 227 150 l 5
 227 -50 l 5
 147 -50 l 5
 147 150 l 5
147 580 m 5
 227 580 l 5
 227 380 l 5
 147 380 l 5
 147 580 l 5
147 380 m 5
 227 380 l 5
 227 301 170 250 51 250 c 5
 45 305 l 5
 133 305 147 340 147 380 c 5
147 150 m 5
 147 190 123 225 45 225 c 5
 51 280 l 5
 170 280 227 229 227 150 c 5
 147 150 l 5
227 580 m 5
 147 580 l 5
 147 659 204 730 323 730 c 5
 329 655 l 5
 251 655 227 620 227 580 c 5
227 -50 m 5
 227 -90 251 -125 329 -125 c 5
 323 -200 l 5
 204 -200 147 -129 147 -50 c 5
 227 -50 l 5
EndSplineSet
EndChar

StartChar: bar
Encoding: 124 124 92
Width: 300
VWidth: 0
Flags: HMW
LayerCount: 2
Fore
SplineSet
185 780 m 5
 185 -80 l 5
 115 -80 l 5
 115 780 l 5
 185 780 l 5
EndSplineSet
EndChar

StartChar: asciitilde
Encoding: 126 126 93
Width: 470
VWidth: 0
Flags: HMW
LayerCount: 2
Fore
SplineSet
115 174 m 5
 45 194 l 5
 49.5654296875 272.260742188 96.859375 310.638671875 148.23046875 310.638671875 c 4
 211.844726562 310.638671875 267.365234375 246.962890625 311.607421875 246.962890625 c 4
 356.108398438 246.962890625 365 276.58984375 365 314 c 5
 425 294 l 5
 420.434570312 205.739257812 373.989257812 177.361328125 323.821289062 177.361328125 c 4
 262.262695312 177.361328125 209.831054688 241.037109375 167.247070312 241.037109375 c 4
 123.446289062 241.037109375 115 211.41015625 115 174 c 5
EndSplineSet
EndChar

StartChar: tilde
Encoding: 732 732 98
Width: 500
VWidth: 0
Flags: HMW
AnchorPoint: "dot" 250 610 basechar 0
LayerCount: 2
Fore
SplineSet
130 600 m 1
 60 620 l 1
 64.5654296875 698.260742188 111.859375 736.638671875 163.23046875 736.638671875 c 0
 226.844726562 736.638671875 282.365234375 672.962890625 326.607421875 672.962890625 c 0
 371.108398438 672.962890625 380 702.58984375 380 740 c 1
 440 720 l 1
 435.434570312 631.739257812 388.989257812 603.361328125 338.821289062 603.361328125 c 0
 277.262695312 603.361328125 224.831054688 667.037109375 182.247070312 667.037109375 c 0
 138.446289062 667.037109375 130 637.41015625 130 600 c 1
EndSplineSet
EndChar

StartChar: dotaccent
Encoding: 729 729 99
Width: 500
VWidth: 0
Flags: MW
AnchorPoint: "dot" 250 590 basechar 0
LayerCount: 2
Fore
SplineSet
185 645 m 0
 185 681 214 710 250 710 c 0
 286 710 315 681 315 645 c 0
 315 609 286 580 250 580 c 0
 214 580 185 609 185 645 c 0
EndSplineSet
EndChar

StartChar: ring
Encoding: 730 730 100
Width: 500
VWidth: 0
Flags: HMW
AnchorPoint: "ring" 250 590 basechar 0
LayerCount: 2
Fore
SplineSet
200 680 m 0
 200 651 221 630 250 630 c 0
 279 630 300 651 300 680 c 0
 300 709 279 730 250 730 c 4
 221 730 200 709 200 680 c 0
150 680 m 0
 150 735 195 780 250 780 c 0
 305 780 350 735 350 680 c 0
 350 625 305 580 250 580 c 0
 195 580 150 625 150 680 c 0
EndSplineSet
EndChar

StartChar: breve
Encoding: 728 728 101
Width: 500
VWidth: 0
Flags: HMW
AnchorPoint: "dot" 244 579 basechar 0
LayerCount: 2
Fore
SplineSet
244 659 m 1
 184 659 149 683 149 731 c 1
 74 725 l 1
 74 636 145 579 244 579 c 1
 244 659 l 1
244 659 m 1
 244 579 l 1
 343 579 414 636 414 725 c 1
 339 731 l 1
 339 683 304 659 244 659 c 1
EndSplineSet
EndChar

StartChar: circumflex
Encoding: 710 710 102
Width: 500
VWidth: 0
Flags: HMW
AnchorPoint: "dot" 250 630 basechar 0
LayerCount: 2
Fore
SplineSet
315 630 m 1
 215 730 l 1
 285 730 l 1
 385 630 l 1
 315 630 l 1
215 730 m 1
 285 730 l 1
 185 630 l 1
 115 630 l 1
 215 730 l 1
EndSplineSet
EndChar

StartChar: caron
Encoding: 711 711 103
Width: 500
VWidth: 0
Flags: HMW
AnchorPoint: "dot" 250 630 basechar 0
LayerCount: 2
Fore
SplineSet
185 730 m 1
 285 630 l 1
 215 630 l 1
 115 730 l 1
 185 730 l 1
285 630 m 1
 215 630 l 1
 315 730 l 1
 385 730 l 1
 285 630 l 1
EndSplineSet
EndChar

StartChar: cent
Encoding: 162 162 105
Width: 600
VWidth: 0
Flags: HMW
LayerCount: 2
Fore
SplineSet
315 600 m 1
 355 600 l 1
 355 -80 l 1
 315 -80 l 1
 315 600 l 1
145 260 m 0
 145 151 228 65 335 65 c 0
 399 65 455 94 492 143 c 1
 543 92 l 1
 496 28 422 -10 335 -10 c 0
 186 -10 65 111 65 260 c 0
 65 409 186 530 335 530 c 0
 422 530 495 491 542 428 c 1
 492 377 l 1
 455 426 399 455 335 455 c 0
 228 455 145 369 145 260 c 0
EndSplineSet
EndChar

StartChar: sterling
Encoding: 163 163 108
Width: 600
VWidth: 0
Flags: HMW
LayerCount: 2
Fore
SplineSet
155 45 m 1
 77 -1 l 1
 247 272.541992188 115 278.921875 115 530 c 1
 195 530 l 1
 195 346.112304688 305 219.735351562 155 45 c 1
145 -25 m 1
 77 -1 l 1
 151.565429688 77.2607421875 186.859375 91.638671875 258.23046875 91.638671875 c 0
 321.844726562 91.638671875 362.365234375 37.962890625 406.607421875 37.962890625 c 0
 451.108398438 37.962890625 477 57.58984375 497 95 c 1
 555 70 l 1
 530.434570312 -18.2607421875 463.989257812 -31.638671875 413.821289062 -31.638671875 c 0
 332.262695312 -31.638671875 274.831054688 32.037109375 232.247070312 32.037109375 c 0
 188.446289062 32.037109375 165 12.41015625 145 -25 c 1
45 380 m 5
 343 380 l 5
 343 305 l 5
 45 305 l 5
 45 380 l 5
305 635 m 1
 299 710 l 1
 381 710 450 669 487 610 c 1
 445 551 l 1
 418 590 369 635 305 635 c 1
195 530 m 1
 115 530 l 1
 115 629 190 710 299 710 c 1
 305 635 l 1
 230 635 195 589 195 530 c 1
EndSplineSet
EndChar

StartChar: currency
Encoding: 164 164 109
Width: 600
VWidth: 0
Flags: HMW
LayerCount: 2
Fore
SplineSet
133 199 m 1
 184 148 l 1
 88 52 l 1
 37 103 l 1
 133 199 l 1
411 153 m 1
 462 204 l 1
 563 103 l 1
 512 52 l 1
 411 153 l 1
512 578 m 1
 563 527 l 1
 450 414 l 1
 399 465 l 1
 512 578 l 1
37 527 m 1
 88 578 l 1
 201 465 l 1
 150 414 l 1
 37 527 l 1
148 315 m 0
 148 228 214 159 300 159 c 0
 386 159 452 228 452 315 c 0
 452 402 386 471 300 471 c 0
 214 471 148 402 148 315 c 0
84 315 m 0
 84 434 181 531 300 531 c 0
 419 531 516 434 516 315 c 0
 516 196 419 99 300 99 c 0
 181 99 84 196 84 315 c 0
EndSplineSet
EndChar

StartChar: brokenbar
Encoding: 166 166 111
Width: 300
VWidth: 0
Flags: HMW
LayerCount: 2
Fore
SplineSet
185 460 m 5
 115 460 l 5
 115 780 l 1
 185 780 l 1
 185 460 l 5
185 280 m 1
 185 -80 l 1
 115 -80 l 1
 115 280 l 1
 185 280 l 1
EndSplineSet
EndChar

StartChar: section
Encoding: 167 167 112
Width: 520
VWidth: 0
Flags: HMW
LayerCount: 2
Fore
SplineSet
395 140 m 1
 475 140 l 1
 475 61 414 -10 275 -10 c 0
 166 -10 100 37 45 104 c 1
 100 155 l 1
 146 105 197 65 275 65 c 0
 348 65 395 90 395 140 c 1
280 287 m 0
 397 268 475 260 475 140 c 1
 395 140 l 1
 395 180 358.594726562 200.76171875 250 216 c 0
 146.522460938 230.520507812 10 328 150 473 c 5
 210 473 l 5
 110 343 182.280273438 302.869140625 280 287 c 0
170 573 m 1
 90 573 l 1
 90 649 166 710 275 710 c 0
 384 710 436 670 478 628 c 1
 429 573 l 1
 391 606 353 635 275 635 c 0
 197 635 170 605 170 573 c 1
300 498 m 0
 417 479 555 400 415 250 c 5
 355 250 l 5
 455 380 378.594726562 411.76171875 270 427 c 0
 166.522460938 441.520507812 90 478 90 573 c 1
 170 573 l 1
 170 523 202.280273438 513.869140625 300 498 c 0
EndSplineSet
EndChar

StartChar: copyright
Encoding: 169 169 114
Width: 850
VWidth: 0
Flags: HMW
LayerCount: 2
Fore
SplineSet
113 350 m 0
 113 174 254 30 425 30 c 0
 596 30 737 174 737 350 c 0
 737 526 596 670 425 670 c 0
 254 670 113 526 113 350 c 0
70 350 m 0
 70 549 230 710 425 710 c 0
 620 710 780 549 780 350 c 0
 780 151 620 -10 425 -10 c 0
 230 -10 70 151 70 350 c 0
EndSplineSet
Refer: 8 67 N 0.5 0 0 0.5 220.5 175 2
EndChar

StartChar: registered
Encoding: 174 174 116
Width: 850
VWidth: 0
Flags: HMW
LayerCount: 2
Fore
SplineSet
113 350 m 0
 113 174 254 30 425 30 c 0
 596 30 737 174 737 350 c 0
 737 526 596 670 425 670 c 0
 254 670 113 526 113 350 c 0
70 350 m 0
 70 549 230 710 425 710 c 0
 620 710 780 549 780 350 c 0
 780 151 620 -10 425 -10 c 0
 230 -10 70 151 70 350 c 0
EndSplineSet
Refer: 17 82 S 0.5 0 0 0.5 252 175 2
EndChar

StartChar: degree
Encoding: 176 176 119
Width: 400
VWidth: 0
Flags: HMW
LayerCount: 2
Fore
SplineSet
130 680 m 0
 130 641 161 610 200 610 c 0
 239 610 270 641 270 680 c 0
 270 719 239 750 200 750 c 0
 161 750 130 719 130 680 c 0
100 680 m 0
 100 735 145 780 200 780 c 0
 255 780 300 735 300 680 c 0
 300 625 255 580 200 580 c 0
 145 580 100 625 100 680 c 0
EndSplineSet
EndChar

StartChar: mu
Encoding: 181 181 120
Width: 635
VWidth: 0
Flags: HMW
LayerCount: 2
Fore
SplineSet
80 220 m 1
 160 220 l 1
 160 -198 l 1
 80 -198 l 1
 80 220 l 1
EndSplineSet
Refer: 40 117 N 1 0 0 1 0 0 2
EndChar

StartChar: grave
Encoding: 96 96 123
Width: 320
VWidth: 0
Flags: HMW
AnchorPoint: "dot" 200 590 basechar 0
LayerCount: 2
Fore
SplineSet
190 590 m 1
 70 730 l 1
 170 730 l 1
 250 590 l 1
 190 590 l 1
EndSplineSet
EndChar

StartChar: acute
Encoding: 180 180 124
Width: 320
VWidth: 0
Flags: HMW
AnchorPoint: "dot" 120 590 basechar 0
LayerCount: 2
Fore
SplineSet
130 590 m 1
 70 590 l 1
 150 730 l 1
 250 730 l 1
 130 590 l 1
EndSplineSet
EndChar

StartChar: logicalnot
Encoding: 172 172 126
Width: 540
VWidth: 0
Flags: HMW
LayerCount: 2
Fore
SplineSet
405 435 m 5
 475 435 l 5
 475 275 l 5
 405 275 l 5
 405 435 l 5
EndSplineSet
Refer: 78 45 S 1.13333 0 0 1 -8.66667 100 2
EndChar

StartChar: macron
Encoding: 175 175 127
Width: 300
VWidth: 0
Flags: HMW
LayerCount: 2
Fore
SplineSet
-2 800 m 1
 302 800 l 5
 302 720 l 5
 -2 720 l 1
 -2 800 l 1
EndSplineSet
EndChar

StartChar: paragraph
Encoding: 182 182 130
Width: 600
VWidth: 0
Flags: HMW
LayerCount: 2
Fore
SplineSet
445 700 m 1
 445 656 l 1
 353 656 l 1
 353 700 l 1
 445 700 l 1
525 700 m 1
 525 0 l 1
 445 0 l 1
 445 700 l 1
 525 700 l 1
375 700 m 1
 375 0 l 1
 295 0 l 1
 295 700 l 1
 375 700 l 1
295 260 m 1
 196 260 75 351 75 480 c 0
 75 609 196 700 295 700 c 1
 295 520 295 440 295 260 c 1
EndSplineSet
EndChar

StartChar: cedilla
Encoding: 184 184 131
Width: 320
VWidth: 0
Flags: HMW
AnchorPoint: "ced" 146 -1 basechar 0
LayerCount: 2
Fore
SplineSet
84 30 m 5
 124 30 l 5
 174 -4 239 -44 239 -102 c 4
 239 -149 217 -184 150 -184 c 4
 113 -184 75 -170 54 -155 c 5
 74 -125 l 5
 83 -128 103 -140 133 -140 c 4
 164 -140 188 -131 188 -99 c 4
 188 -64 131 -9 84 30 c 5
EndSplineSet
EndChar

StartChar: dotlessi
Encoding: 305 305 225
Width: 250
VWidth: 0
Flags: HMW
AnchorPoint: "ced" 125 0 basechar 0
LayerCount: 2
Fore
SplineSet
85 520 m 1
 165 520 l 1
 165 0 l 1
 85 0 l 1
 85 520 l 1
EndSplineSet
EndChar

StartChar: uni0237
Encoding: 567 567 349
Width: 250
VWidth: 0
Flags: W
HStem: -210 75<-47.9045 68.9875> 500 20G<89 169>
VStem: 89 80<-116.766 520>
LayerCount: 2
Fore
SplineSet
89 520 m 1
 169 520 l 1
 169 -60 l 1
 89 -60 l 1
 89 520 l 1
28 -135 m 1
 34 -210 l 1
 -23 -210 -73 -194 -100 -160 c 1
 -62 -101 l 1
 -45 -120 -15 -135 28 -135 c 1
89 -60 m 1
 169 -60 l 1
 169 -139 123 -210 34 -210 c 1
 28 -135 l 1
 65 -135 89 -100 89 -60 c 1
EndSplineSet
EndChar

StartChar: kgreenlandic
Encoding: 312 312 573
Width: 570
VWidth: 0
Flags: HW
AnchorPoint: "dot" 325 673 basechar 0
AnchorPoint: "ced" 495 0 basechar 0
LayerCount: 2
Fore
SplineSet
245 291 m 1
 325 305 l 1
 545 0 l 1
 455 0 l 1
 245 291 l 1
430 520 m 1
 525 520 l 1
 165 110 l 1
 110 154 l 1
 430 520 l 1
85 520 m 5
 165 520 l 5
 165 0 l 1
 85 0 l 1
 85 520 l 5
EndSplineSet
EndChar

StartChar: ogonek
Encoding: 731 731 574
Width: 320
VWidth: 0
Flags: HW
AnchorPoint: "ced" 149 0 basechar 0
LayerCount: 2
Fore
SplineSet
209 30 m 1
 162 -9 105 -64 105 -99 c 0
 105 -131 129 -140 160 -140 c 0
 190 -140 210 -128 219 -125 c 1
 239 -155 l 1
 218 -170 180 -184 143 -184 c 0
 76 -184 54 -149 54 -102 c 0
 54 -44 119 -4 169 30 c 1
 209 30 l 1
EndSplineSet
EndChar

StartChar: AE
Encoding: 198 198 582
Width: 1090
VWidth: 0
Flags: HW
LayerCount: 2
Fore
SplineSet
440 700 m 1
 565 700 l 1
 560 620 l 1
 440 620 l 1
 440 700 l 1
204 260 m 1
 596 260 l 1
 596 185 l 1
 204 185 l 1
 204 260 l 1
440 700 m 1
 515 690 l 1
 125 0 l 1
 40 0 l 1
 440 700 l 1
EndSplineSet
Refer: 0 69 N 1 0 0 1 430 0 2
EndChar

StartChar: fi
Encoding: 64257 64257 585
Width: 375
VWidth: 0
Flags: HW
AnchorPoint: "ced" 158 0 basechar 0
LayerCount: 2
Fore
SplineSet
45 520 m 1
 348 520 l 1
 348 445 l 1
 45 445 l 1
 45 520 l 1
200 590 m 1
 200 0 l 1
 115 0 l 1
 115 590 l 1
 200 590 l 1
200 590 m 1
 115 590 l 1
 115 669 175 740 264 740 c 1
 270 665 l 1
 215 665 200 629 200 590 c 1
270 665 m 1
 264 740 l 1
 302.70703125 740 334.788085938 731.815429688 360 708.608398438 c 1
 360 631 l 1
 343 645 314 665 270 665 c 1
EndSplineSet
EndChar
